# File created by Blade
# Date/Time:  Fri Jan 16 17:52:57 2015
#---------------------------------------------------------
:version 1.10
:name HOM
:units
  mass 1.0
  length 1.000000
  angle deg
:documentation
     Acclaim Skeleton File
:root
   axis xyz
   order TX TY TZ RX RY RZ
   position 0.000000 0.000000 0.000000
   orientation 0 0 0
:bonedata
   begin
      id 1
      name Spine_dum
      direction 0.000000 1.000000 0.000000
      length 7.170412
      axis 0.0 0.0 0.0 xyz
   end
   begin
      id 2
      name LeftUpLeg_dum
      direction 1.000000 0.000000 0.000000
      length 4.318350
      axis 0.0 0.0 0.0 xyz
   end
   begin
      id 3
      name RightUpLeg_dum
      direction -1.000000 0.000000 0.000000
      length 4.318350
      axis 0.0 0.0 0.0 xyz
   end
   begin
      id 4
      name Spine
      direction 0.000000 1.000000 0.000000
      length 0.000000
      axis 0.0 0.0 0.0 xyz
      dof rx ry rz
   end
   begin
      id 5
      name Spine_dum1
      direction 0.000000 1.000000 0.000000
      length 14.276153
      axis 0.0 0.0 0.0 xyz
   end
   begin
      id 6
      name Spine_dum2
      direction 0.000000 1.000000 0.000000
      length 10.718243
      axis 0.0 0.0 0.0 xyz
   end
   begin
      id 7
      name Spine_dum3
      direction 0.000000 1.000000 0.000000
      length 10.718243
      axis 0.0 0.0 0.0 xyz
   end
   begin
      id 8
      name Head
      direction 0.000000 1.000000 0.000000
      length 4.527550
      axis 0.0 0.0 0.0 xyz
      dof rx ry rz
   end
   begin
      id 9
      name LeftShoulder
      direction 1.000000 0.000000 0.000000
      length 7.058872
      axis 0.0 0.0 -90.0 xyz
      dof rx ry rz
   end
   begin
      id 10
      name LeftArm
      direction 1.000000 0.000000 0.000000
      length 10.955525
      axis 0.0 0.0 -90.0 xyz
      dof rx ry rz
   end
   begin
      id 11
      name LeftForeArm
      direction 1.000000 0.000000 0.000000
      length 8.193716
      axis 0.0 0.0 -90.0 xyz
      dof ry rz rx
   end
   begin
      id 12
      name LeftHand
      direction 0.000000 0.000000 0.000000
      length 0.000000
      axis 0.0 0.0 -90.0 xyz
      dof rx ry rz
   end
   begin
      id 13
      name LeftHand_dum1
      direction 0.000000 0.000000 0.000000
      length 0.000000
      axis 0.0 0.0 -90.0 xyz
   end
   begin
      id 14
      name LeftHand_dum2
      direction 1.000000 0.000000 0.000000
      length 3.937000
      axis 0.0 0.0 -90.0 xyz
   end
   begin
      id 15
      name LeftHandThumb1
      direction 0.000000 0.000000 1.000000
      length 3.937000
      axis 0.0 0.0 -90.0 xyz
      dof rx rz ry
   end
   begin
      id 16
      name RightShoulder
      direction -1.000000 0.000000 0.000000
      length 7.058872
      axis 0.0 0.0 90.0 xyz
      dof rx ry rz
   end
   begin
      id 17
      name RightArm
      direction -1.000000 0.000000 0.000000
      length 10.955525
      axis 0.0 0.0 90.0 xyz
      dof rx ry rz
   end
   begin
      id 18
      name RightForeArm
      direction -1.000000 0.000000 0.000000
      length 8.193716
      axis 0.0 0.0 90.0 xyz
      dof ry rz rx
   end
   begin
      id 19
      name RightHand
      direction 0.000000 0.000000 0.000000
      length 0.000000
      axis 0.0 0.0 90.0 xyz
      dof rx ry rz
   end
   begin
      id 20
      name RightHand_dum1
      direction 0.000000 0.000000 0.000000
      length 0.000000
      axis 0.0 0.0 90.0 xyz
   end
   begin
      id 21
      name RightHand_dum2
      direction -1.000000 0.000000 0.000000
      length 3.937000
      axis 0.0 0.0 90.0 xyz
   end
   begin
      id 22
      name RightHandThumb1
      direction 0.000000 0.000000 1.000000
      length 3.937000
      axis 0.0 0.0 90.0 xyz
      dof rx rz ry
   end
   begin
      id 23
      name LeftUpLeg
      direction 0.000000 -1.000000 0.000000
      length 17.323638
      axis 0.0 0.0 0.0 xyz
      dof rx ry rz
   end
   begin
      id 24
      name LeftLeg
      direction 0.000000 -1.000000 0.000000
      length 16.270368
      axis 0.0 0.0 0.0 xyz
      dof rx ry rz
   end
   begin
      id 25
      name LeftFoot
      direction 0.000000 -0.258819 0.965926
      length 4.922846
      axis 15.0 0.0 0.0 xyz
      dof rx ry rz
   end
   begin
      id 26
      name LeftToeBase
      direction 0.000000 0.000000 1.000000
      length 2.952750
      axis 0.0 0.0 0.0 xyz
      dof rx ry rz
   end
   begin
      id 27
      name RightUpLeg
      direction 0.000000 -1.000000 0.000000
      length 17.323638
      axis 0.0 0.0 0.0 xyz
      dof rx ry rz
   end
   begin
      id 28
      name RightLeg
      direction 0.000000 -1.000000 0.000000
      length 16.270368
      axis 0.0 0.0 0.0 xyz
      dof rx ry rz
   end
   begin
      id 29
      name RightFoot
      direction 0.000000 -0.258819 0.965926
      length 4.922846
      axis 15.0 0.0 0.0 xyz
      dof rx ry rz
   end
   begin
      id 30
      name RightToeBase
      direction 0.000000 0.000000 1.000000
      length 2.952750
      axis 0.0 0.0 0.0 xyz
      dof rx ry rz
   end
:hierarchy
   begin
      root Spine_dum LeftUpLeg_dum RightUpLeg_dum
      Spine_dum Spine
      LeftUpLeg_dum LeftUpLeg
      RightUpLeg_dum RightUpLeg
      Spine Spine_dum1 Spine_dum2 Spine_dum3
      Spine_dum1 Head
      Spine_dum2 LeftShoulder
      Spine_dum3 RightShoulder
      LeftShoulder LeftArm
      LeftArm LeftForeArm
      LeftForeArm LeftHand
      LeftHand LeftHand_dum1 LeftHand_dum2
      LeftHand_dum1 LeftHandThumb1
      RightShoulder RightArm
      RightArm RightForeArm
      RightForeArm RightHand
      RightHand RightHand_dum1 RightHand_dum2
      RightHand_dum1 RightHandThumb1
      LeftUpLeg LeftLeg
      LeftLeg LeftFoot
      LeftFoot LeftToeBase
      RightUpLeg RightLeg
      RightLeg RightFoot
      RightFoot RightToeBase
   end

# File created by Blade
# Date/Time:  Fri Jan 16 17:53:05 2015
# Frame Rate: 120.000 fps
#------------------------------------------------------
:FULLY-SPECIFIED
:DEGREES
1086
root -4.387349 35.340964 -11.133441 -3.881313 3.473081 -8.369593
Spine 2.200518 -9.240524 9.556024
Head 4.343003 3.547607 -4.277393
LeftShoulder -23.968272 17.135526 -9.808225
LeftArm 23.646855 -25.368267 -66.624331
LeftForeArm 0.494585 0.000000 126.730035
LeftHand 1.794344 -0.000000 15.938214
LeftHandThumb1 -26.253704 0.000000 33.147579
RightShoulder -6.669339 -8.117545 0.014429
RightArm 0.933343 -20.039792 72.684007
RightForeArm -16.247563 -0.000000 21.623259
RightHand -1.073941 -0.000000 -4.132949
RightHandThumb1 -24.326973 -0.000000 -32.862282
LeftUpLeg 11.640855 -2.348174 -1.364327
LeftLeg -7.438330 -0.000000 0.000000
LeftFoot -15.685213 32.556257 -2.984896
LeftToeBase 19.963304 -0.000000 -0.000000
RightUpLeg 3.817370 14.200274 9.412652
RightLeg 7.120833 -0.000000 -0.000000
RightFoot -8.435045 -13.497005 6.779611
RightToeBase 9.230013 -0.000000 -0.000000
1087
root -4.393781 35.334874 -11.128339 -3.872123 3.564261 -8.259400
Spine 2.152738 -9.245929 9.446075
Head 4.361394 3.530358 -4.295775
LeftShoulder -23.986394 17.096775 -9.856285
LeftArm 23.668441 -25.418595 -66.592826
LeftForeArm 0.408042 -0.000000 126.730805
LeftHand 1.885160 -0.000000 15.840648
LeftHandThumb1 -26.253704 0.000000 33.147579
RightShoulder -6.688126 -8.084084 0.053551
RightArm 0.918941 -20.159752 72.606651
RightForeArm -16.385250 0.000000 21.569083
RightHand -1.057945 0.000000 -4.468117
RightHandThumb1 -24.326973 -0.000000 -32.862282
LeftUpLeg 11.591471 -2.397673 -1.457173
LeftLeg -7.352881 -0.000000 0.000000
LeftFoot -15.747357 32.503105 -3.014275
LeftToeBase 20.015250 -0.000000 -0.000000
RightUpLeg 3.987847 14.228161 9.282298
RightLeg 6.801245 -0.000000 -0.000000
RightFoot -8.502549 -13.349239 6.845107
RightToeBase 9.430308 -0.000000 -0.000000
1088
root -4.397735 35.329528 -11.118581 -3.886987 3.592197 -8.178757
Spine 2.137115 -9.187588 9.373411
Head 4.372138 3.413595 -4.364754
LeftShoulder -23.985907 17.068333 -9.851298
LeftArm 23.663767 -25.702635 -66.777994
LeftForeArm -0.826106 -0.000000 126.652431
LeftHand 2.782585 -0.000000 14.546881
LeftHandThumb1 -26.253704 0.000000 33.147579
RightShoulder -6.717243 -8.087841 0.062631
RightArm 0.919033 -20.208801 72.526682
RightForeArm -16.367846 -0.000000 21.613130
RightHand -1.128094 -0.000000 -3.857884
RightHandThumb1 -24.326973 -0.000000 -32.862282
LeftUpLeg 11.606834 -2.375635 -1.529012
LeftLeg -7.316912 -0.000000 0.000000
LeftFoot -15.784682 32.457587 -3.027495
LeftToeBase 20.019422 -0.000000 -0.000000
RightUpLeg 4.191406 14.342194 9.190896
RightLeg 6.489059 -0.000000 -0.000000
RightFoot -8.550901 -13.212914 6.922626
RightToeBase 9.561812 -0.000000 -0.000000
1089
root -4.401008 35.324663 -11.112065 -3.894199 3.617438 -8.093409
Spine 2.124063 -9.137541 9.304343
Head 4.372781 3.397323 -4.383650
LeftShoulder -23.999765 16.978128 -9.850087
LeftArm 23.595510 -25.716402 -66.778483
LeftForeArm -0.916326 -0.000000 126.658444
LeftHand 2.904982 -0.000000 14.377442
LeftHandThumb1 -26.253704 0.000000 33.147579
RightShoulder -6.708395 -8.090228 0.061324
RightArm 0.924487 -20.151017 72.492090
RightForeArm -16.564632 -0.000000 21.569313
RightHand -0.989755 -0.000000 -4.353191
RightHandThumb1 -24.326973 -0.000000 -32.862282
LeftUpLeg 11.610098 -2.353511 -1.612233
LeftLeg -7.281788 -0.000000 0.000000
LeftFoot -15.809467 32.431699 -3.023200
LeftToeBase 20.019079 -0.000000 -0.000000
RightUpLeg 4.370309 14.455023 9.098044
RightLeg 6.209957 -0.000000 -0.000000
RightFoot -8.664467 -13.104106 7.032000
RightToeBase 9.859484 -0.000000 -0.000000
1090
root -4.404166 35.320172 -11.105127 -3.912449 3.632671 -8.015848
Spine 2.129121 -9.081877 9.248988
Head 4.361532 3.394378 -4.405386
LeftShoulder -23.989287 17.039769 -9.920147
LeftArm 23.660184 -25.797507 -66.831853
LeftForeArm -0.761244 -0.000000 126.716590
LeftHand 2.781195 -0.000000 14.471102
LeftHandThumb1 -26.253704 0.000000 33.147579
RightShoulder -6.718319 -8.083702 0.012464
RightArm 0.940117 -20.146489 72.489067
RightForeArm -16.497366 -0.000000 21.549048
RightHand -1.006660 -0.000000 -4.294721
RightHandThumb1 -24.326973 -0.000000 -32.862282
LeftUpLeg 11.631925 -2.305312 -1.690210
LeftLeg -7.262854 -0.000000 0.000000
LeftFoot -15.866721 32.382555 -3.083626
LeftToeBase 19.993892 -0.000000 -0.000000
RightUpLeg 4.570573 14.580218 9.015214
RightLeg 5.908174 -0.000000 -0.000000
RightFoot -8.737569 -12.974927 7.214547
RightToeBase 10.025455 -0.000000 -0.000000
1091
root -4.406952 35.314851 -11.095701 -3.965769 3.653883 -7.938393
Spine 2.178146 -9.038159 9.187989
Head 4.325681 3.474462 -4.373657
LeftShoulder -23.972974 17.042949 -9.956462
LeftArm 23.662984 -25.852055 -66.850411
LeftForeArm -0.704302 0.000000 126.760560
LeftHand 2.729348 -0.000000 14.601999
LeftHandThumb1 -26.253704 0.000000 33.147579
RightShoulder -6.715715 -8.091515 -0.059982
RightArm 0.988419 -20.265268 72.508540
RightForeArm -16.435889 -0.000000 21.481044
RightHand -1.007584 -0.000000 -4.628331
RightHandThumb1 -24.326973 -0.000000 -32.862282
LeftUpLeg 11.687112 -2.233349 -1.772829
LeftLeg -7.232118 -0.000000 0.000000
LeftFoot -15.857081 32.355994 -2.995598
LeftToeBase 19.897508 -0.000000 -0.000000
RightUpLeg 4.804002 14.588278 8.934312
RightLeg 5.618223 -0.000000 -0.000000
RightFoot -8.798552 -12.811850 7.314906
RightToeBase 10.165984 -0.000000 -0.000000
1092
root -4.408694 35.309540 -11.088800 -4.006778 3.668777 -7.865607
Spine 2.220554 -8.998047 9.131117
Head 4.282390 3.460832 -4.405506
LeftShoulder -23.974489 17.038865 -9.969582
LeftArm 23.669669 -25.903317 -66.933896
LeftForeArm -0.668592 -0.000000 126.794472
LeftHand 2.708674 0.000000 14.582989
LeftHandThumb1 -26.253704 0.000000 33.147579
RightShoulder -6.652961 -8.069968 -0.135235
RightArm 0.942847 -20.152345 72.557539
RightForeArm -16.521238 -0.000000 21.508724
RightHand -1.026531 -0.000000 -4.540932
RightHandThumb1 -24.326973 -0.000000 -32.862282
LeftUpLeg 11.721505 -2.160729 -1.850606
LeftLeg -7.194613 -0.000000 0.000000
LeftFoot -15.884496 32.310466 -2.967660
LeftToeBase 19.855215 -0.000000 -0.000000
RightUpLeg 5.004103 14.597710 8.857673
RightLeg 5.356999 -0.000000 -0.000000
RightFoot -8.872224 -12.738347 7.358811
RightToeBase 10.354792 -0.000000 -0.000000
1093
root -4.408018 35.304705 -11.080235 -4.050786 3.625652 -7.822723
Spine 2.272270 -8.911777 9.136017
Head 4.227913 3.456978 -4.479931
LeftShoulder -23.995016 17.041877 -10.021275
LeftArm 23.680123 -25.950803 -67.012717
LeftForeArm -0.637581 -0.000000 126.838713
LeftHand 2.697021 -0.000000 14.538815
LeftHandThumb1 -26.253704 0.000000 33.147579
RightShoulder -6.617095 -8.088216 -0.239457
RightArm 0.972297 -20.190913 72.557692
RightForeArm -16.356423 -0.000000 21.539236
RightHand -1.057667 -0.000000 -4.491992
RightHandThumb1 -24.326973 -0.000000 -32.862282
LeftUpLeg 11.789948 -2.071491 -1.903616
LeftLeg -7.206277 -0.000000 0.000000
LeftFoot -15.892229 32.294179 -2.921710
LeftToeBase 19.870433 -0.000000 -0.000000
RightUpLeg 5.200476 14.594137 8.808229
RightLeg 5.096159 -0.000000 -0.000000
RightFoot -8.926522 -12.598256 7.477682
RightToeBase 10.570937 -0.000000 -0.000000
1094
root -4.411887 35.300825 -11.074656 -4.101199 3.655449 -7.759662
Spine 2.339419 -8.898355 9.047077
Head 4.166383 3.366208 -4.507920
LeftShoulder -24.011794 17.050534 -10.009660
LeftArm 23.707777 -25.978633 -67.111197
LeftForeArm -0.569489 -0.000000 126.890621
LeftHand 2.688163 -0.000000 14.598569
LeftHandThumb1 -26.253704 0.000000 33.147579
RightShoulder -6.571335 -8.097448 -0.269725
RightArm 1.003775 -20.269608 72.546461
RightForeArm -16.201838 -0.000000 21.557223
RightHand -1.098715 -0.000000 -4.371006
RightHandThumb1 -24.326973 -0.000000 -32.862282
LeftUpLeg 11.845462 -2.112012 -1.980804
LeftLeg -7.199684 -0.000000 0.000000
LeftFoot -15.875524 32.334881 -2.872090
LeftToeBase 19.873029 -0.000000 -0.000000
RightUpLeg 5.398064 14.458221 8.749173
RightLeg 4.831618 -0.000000 -0.000000
RightFoot -8.934998 -12.504565 7.420551
RightToeBase 10.743734 -0.000000 -0.000000
1095
root -4.414527 35.297495 -11.069634 -4.150284 3.664820 -7.724895
Spine 2.406179 -8.861186 9.024287
Head 4.108756 3.313173 -4.546345
LeftShoulder -24.023809 17.030186 -10.037453
LeftArm 23.722576 -25.987022 -67.141132
LeftForeArm -0.424351 -0.000000 126.939107
LeftHand 2.549273 -0.000000 14.741928
LeftHandThumb1 -26.253704 0.000000 33.147579
RightShoulder -6.520554 -8.080486 -0.338854
RightArm 1.011453 -20.290038 72.565731
RightForeArm -16.313585 -0.000000 21.559065
RightHand -1.010209 -0.000000 -4.591067
RightHandThumb1 -24.326973 -0.000000 -32.862282
LeftUpLeg 11.904937 -2.209602 -2.041569
LeftLeg -7.202664 -0.000000 0.000000
LeftFoot -15.875979 32.446200 -2.845359
LeftToeBase 19.909770 -0.000000 -0.000000
RightUpLeg 5.584999 14.380086 8.724743
RightLeg 4.579954 -0.000000 -0.000000
RightFoot -8.930407 -12.441772 7.419622
RightToeBase 10.917418 -0.000000 -0.000000
1096
root -4.415953 35.295589 -11.065337 -4.186687 3.669717 -7.704473
Spine 2.454285 -8.823975 9.026645
Head 4.065583 3.293376 -4.580157
LeftShoulder -24.076331 17.028437 -10.098303
LeftArm 23.797734 -26.005056 -67.179970
LeftForeArm -0.440079 -0.000000 126.931580
LeftHand 2.621269 -0.000000 14.706563
LeftHandThumb1 -26.253704 0.000000 33.147579
RightShoulder -6.483531 -8.058734 -0.407629
RightArm 1.020558 -20.325277 72.564706
RightForeArm -16.286469 0.000000 21.595833
RightHand -1.097896 -0.000000 -4.446292
RightHandThumb1 -24.326973 -0.000000 -32.862282
LeftUpLeg 11.947091 -2.362808 -2.096074
LeftLeg -7.193447 -0.000000 0.000000
LeftFoot -15.862268 32.587064 -2.838506
LeftToeBase 19.885922 -0.000000 -0.000000
RightUpLeg 5.759323 14.297258 8.710607
RightLeg 4.317265 -0.000000 -0.000000
RightFoot -8.850146 -12.404488 7.357037
RightToeBase 10.933092 -0.000000 -0.000000
1097
root -4.416460 35.294042 -11.061896 -4.216897 3.673367 -7.690241
Spine 2.496297 -8.792507 9.033728
Head 4.029960 3.270228 -4.607697
LeftShoulder -24.120435 17.004842 -10.133100
LeftArm 23.812946 -25.975961 -67.218726
LeftForeArm -0.378440 -0.000000 126.957920
LeftHand 2.638656 -0.000000 14.732889
LeftHandThumb1 -26.253704 0.000000 33.147579
RightShoulder -6.467056 -8.054088 -0.457993
RightArm 1.079850 -20.510963 72.501491
RightForeArm -16.176812 -0.000000 21.615656
RightHand -1.063597 -0.000000 -4.490047
RightHandThumb1 -24.326973 -0.000000 -32.862282
LeftUpLeg 11.974360 -2.551714 -2.144452
LeftLeg -7.169169 -0.000000 0.000000
LeftFoot -15.865573 32.750600 -2.825972
LeftToeBase 19.919731 -0.000000 -0.000000
RightUpLeg 5.902575 14.231435 8.703306
RightLeg 4.102455 -0.000000 -0.000000
RightFoot -8.782813 -12.392404 7.260652
RightToeBase 11.004812 -0.000000 -0.000000
1098
root -4.415593 35.293530 -11.059557 -4.238732 3.689175 -7.679112
Spine 2.523219 -8.744557 9.048246
Head 4.017667 3.211385 -4.631058
LeftShoulder -24.148034 16.987465 -10.166717
LeftArm 23.837781 -25.917752 -67.260489
LeftForeArm -0.279438 -0.000000 126.988448
LeftHand 2.560833 0.000000 14.758436
LeftHandThumb1 -26.253704 0.000000 33.147579
RightShoulder -6.471842 -8.040502 -0.491480
RightArm 1.125515 -20.539072 72.466453
RightForeArm -16.256054 -0.000000 21.608476
RightHand -0.951398 -0.000000 -4.865218
RightHandThumb1 -24.326973 -0.000000 -32.862282
LeftUpLeg 11.982370 -2.741402 -2.186954
LeftLeg -7.126992 -0.000000 0.000000
LeftFoot -15.881549 32.892999 -2.852510
LeftToeBase 19.915962 -0.000000 -0.000000
RightUpLeg 6.029001 14.168972 8.694620
RightLeg 3.896851 -0.000000 -0.000000
RightFoot -8.699786 -12.368815 7.206116
RightToeBase 11.008385 -0.000000 -0.000000
